<svg width="210" height="210" viewBox="0 0 210 210" fill="none" xmlns="http://www.w3.org/2000/svg">
<path d="M174.52 101.469C172.77 65.7188 144.004 36.9531 108.254 35.1992V0.125H101.344V35.1992C65.5977 36.9531 36.8281 65.7188 35.0781 101.469H0.574219V108.379H35.0781C36.8281 144.129 65.5977 172.895 101.344 174.648V209.727H108.254V174.648C144.004 172.895 172.77 144.129 174.52 108.379H209.023V101.469H174.52ZM101.344 167.727C69.4062 165.988 43.7383 140.316 42 108.379H63.6094C65.2812 128.434 81.293 144.445 101.344 146.113V167.727ZM101.344 139.203C85.1016 137.582 72.1445 124.625 70.5195 108.379H101.344V139.203ZM101.344 101.469H70.5195C72.1445 85.2227 85.1016 72.2695 101.344 70.6445V101.469ZM101.344 63.7344C81.293 65.4062 65.2812 81.418 63.6094 101.469H42C43.7383 69.5352 69.4062 43.8633 101.344 42.1211V63.7344ZM108.254 70.6445C124.5 72.2695 137.457 85.2227 139.082 101.469H108.254V70.6445ZM108.254 108.379H139.082C137.457 124.625 124.5 137.582 108.254 139.203V108.379ZM108.254 167.727V146.113C128.305 144.445 144.32 128.434 145.992 108.379H167.602C165.859 140.316 140.191 165.988 108.254 167.727ZM145.992 101.469C144.32 81.418 128.305 65.4062 108.254 63.7344V42.1211C140.191 43.8633 165.859 69.5312 167.602 101.469H145.992Z" fill="#10ECE5"/>
</svg>
