<svg width="167" height="210" viewBox="0 0 167 210" fill="none" xmlns="http://www.w3.org/2000/svg">
<path d="M83.0273 209.801C82.3047 209.801 81.5703 209.617 80.9141 209.25C77.6133 207.426 0.0195312 163.891 0.0195312 109.359V14.6641C0.0195312 12.9414 1.03516 11.3789 2.60547 10.6797C4.1875 9.98047 6.02344 10.2617 7.30859 11.4141C16.1172 19.3008 27.4922 23.6406 39.3398 23.6406C55.4883 23.6406 70.4648 15.6055 79.4102 2.14844C80.2148 0.933594 81.5859 0.199219 83.0469 0.199219C84.5156 0.199219 85.8789 0.933594 86.6914 2.15625C95.6094 15.6133 110.586 23.6484 126.734 23.6484C138.453 23.6484 149.715 19.4063 158.496 11.6758C160.437 9.61328 164.664 10.2422 165.766 13.1094C166 13.7383 166.09 14.4023 166.035 15.0547V109.375C166.035 163.898 88.4453 207.441 85.1445 209.27C84.4883 209.617 83.7539 209.801 83.0273 209.801ZM8.75781 23.457V109.367C8.75781 154.098 70.6914 193.066 83.0273 200.387C95.3594 193.066 157.301 154.055 157.301 109.367V23.4648C148.23 29.2578 137.648 32.3828 126.734 32.3828C109.703 32.3828 93.7773 24.8203 83.0273 11.875C72.3008 24.8125 56.3711 32.3828 39.3398 32.3828C28.418 32.3828 17.8359 29.2578 8.75781 23.457Z" fill="#10ECE5"/>
<path d="M74.2812 122.469C73.1211 122.469 72.0117 122.004 71.1875 121.191L53.75 103.727C52.043 102.023 52.043 99.2461 53.75 97.5508C55.4531 95.8477 58.2227 95.8477 59.9258 97.5508L74.293 111.926L106.176 80.0859C107.879 78.3828 110.648 78.3828 112.352 80.0859C114.055 81.7891 114.055 84.5547 112.352 86.2578L77.3672 121.191C76.5547 122.004 75.4453 122.469 74.2812 122.469Z" fill="#10ECE5"/>
</svg>
