<svg width="218" height="210" viewBox="0 0 218 210" fill="none" xmlns="http://www.w3.org/2000/svg">
<path d="M108.918 138.27C90.1094 138.27 74.8047 122.953 74.8047 104.129C74.8047 85.3047 90.1094 69.9883 108.918 69.9883C127.73 69.9883 143.031 85.3047 143.031 104.129C143.031 122.953 127.73 138.27 108.918 138.27ZM108.918 50.6133C56.8516 50.6133 0.8125 104.129 0.8125 104.129C0.8125 104.129 56.8516 157.645 108.918 157.645C160.984 157.645 217.023 104.129 217.023 104.129C217.023 104.129 160.984 50.6133 108.918 50.6133Z" fill="#10ECE5"/>
<path d="M108.918 82.5469C95.9062 82.5469 85.3555 93.1055 85.3555 106.129C85.3555 119.152 95.9062 129.707 108.918 129.707C121.93 129.707 132.48 119.152 132.48 106.129C132.48 93.1055 121.93 82.5469 108.918 82.5469Z" fill="#10ECE5"/>
<path d="M205.551 0.199219H171.207C167.355 0.199219 164.227 3.33594 164.227 7.1875C164.227 11.0391 167.355 14.1719 171.207 14.1719H199.57V42.5586C199.57 46.4102 202.699 49.543 206.551 49.543C210.398 49.543 213.531 46.4102 213.531 42.5586V8.1875C213.531 3.78516 209.953 0.199219 205.551 0.199219Z" fill="#10ECE5"/>
<path d="M46.4102 0.199219H12.0664C7.66406 0.199219 4.08594 3.78125 4.08594 8.1875V42.5586C4.08594 46.4102 7.21875 49.543 11.0664 49.543C14.918 49.543 18.0508 46.4102 18.0508 42.5586V14.1758H46.4102C50.2617 14.1758 53.3945 11.0391 53.3945 7.1875C53.3945 3.33594 50.2617 0.199219 46.4102 0.199219Z" fill="#10ECE5"/>
<path d="M46.4102 195.832H18.0508V167.445C18.0508 163.594 14.918 160.461 11.0664 160.461C7.21875 160.461 4.08594 163.594 4.08594 167.445V201.82C4.08594 206.223 7.66406 209.805 12.0664 209.805H46.4102C50.2617 209.805 53.3945 206.668 53.3945 202.816C53.3945 198.965 50.2617 195.832 46.4102 195.832Z" fill="#10ECE5"/>
<path d="M206.551 160.461C202.699 160.461 199.57 163.594 199.57 167.445V195.832H171.207C167.355 195.832 164.227 198.965 164.227 202.816C164.227 206.668 167.355 209.805 171.207 209.805H205.551C209.953 209.805 213.531 206.223 213.531 201.82V167.445C213.531 163.594 210.398 160.461 206.551 160.461Z" fill="#10ECE5"/>
</svg>
